<svg width="345" height="204" viewBox="0 0 345 204" fill="none" xmlns="http://www.w3.org/2000/svg">
<rect width="345" height="204" fill="white"/>
<rect x="118" y="110" width="104" height="26" rx="13" fill="#E94435"/>
<circle cx="131" cy="123" r="7" fill="white"/>
<circle cx="209" cy="123" r="7" fill="white"/>
<rect x="137.467" y="66" width="104" height="26" rx="13" transform="rotate(30 137.467 66)" fill="#FBBD04"/>
<circle cx="142.225" cy="83.7582" r="7" transform="rotate(30 142.225 83.7582)" fill="white"/>
<circle cx="209.775" cy="122.758" r="7" transform="rotate(30 209.775 122.758)" fill="white"/>
<rect x="175.517" y="38" width="104" height="26" rx="13" transform="rotate(60 175.517 38)" fill="#35A954"/>
<circle cx="170.758" cy="55.7582" r="7" transform="rotate(60 170.758 55.7582)" fill="white"/>
<circle cx="209.758" cy="123.308" r="7" transform="rotate(60 209.758 123.308)" fill="white"/>
<rect x="227.578" y="33.4041" width="104" height="26" rx="13" transform="rotate(93.0956 227.578 33.4041)" fill="#4285F4"/>
<circle cx="213.895" cy="45.6831" r="7" transform="rotate(93.0956 213.895 45.6831)" fill="white"/>
<circle cx="209.683" cy="123.569" r="7" transform="rotate(93.0956 209.683 123.569)" fill="white"/>
<path d="M108.023 163.844C107.391 164.602 106.496 165.191 105.34 165.613C104.184 166.027 102.902 166.234 101.496 166.234C100.02 166.234 98.7227 165.914 97.6055 165.273C96.4961 164.625 95.6367 163.688 95.0273 162.461C94.4258 161.234 94.1172 159.793 94.1016 158.137V156.977C94.1016 155.273 94.3867 153.801 94.957 152.559C95.5352 151.309 96.3633 150.355 97.4414 149.699C98.5273 149.035 99.7969 148.703 101.25 148.703C103.273 148.703 104.855 149.188 105.996 150.156C107.137 151.117 107.812 152.52 108.023 154.363H104.602C104.445 153.387 104.098 152.672 103.559 152.219C103.027 151.766 102.293 151.539 101.355 151.539C100.16 151.539 99.25 151.988 98.625 152.887C98 153.785 97.6836 155.121 97.6758 156.895V157.984C97.6758 159.773 98.0156 161.125 98.6953 162.039C99.375 162.953 100.371 163.41 101.684 163.41C103.004 163.41 103.945 163.129 104.508 162.566V159.625H101.309V157.035H108.023V163.844ZM110.133 159.543C110.133 158.285 110.375 157.164 110.859 156.18C111.344 155.195 112.039 154.434 112.945 153.895C113.859 153.355 114.918 153.086 116.121 153.086C117.832 153.086 119.227 153.609 120.305 154.656C121.391 155.703 121.996 157.125 122.121 158.922L122.145 159.789C122.145 161.734 121.602 163.297 120.516 164.477C119.43 165.648 117.973 166.234 116.145 166.234C114.316 166.234 112.855 165.648 111.762 164.477C110.676 163.305 110.133 161.711 110.133 159.695V159.543ZM113.52 159.789C113.52 160.992 113.746 161.914 114.199 162.555C114.652 163.188 115.301 163.504 116.145 163.504C116.965 163.504 117.605 163.191 118.066 162.566C118.527 161.934 118.758 160.926 118.758 159.543C118.758 158.363 118.527 157.449 118.066 156.801C117.605 156.152 116.957 155.828 116.121 155.828C115.293 155.828 114.652 156.152 114.199 156.801C113.746 157.441 113.52 158.438 113.52 159.789ZM123.703 159.543C123.703 158.285 123.945 157.164 124.43 156.18C124.914 155.195 125.609 154.434 126.516 153.895C127.43 153.355 128.488 153.086 129.691 153.086C131.402 153.086 132.797 153.609 133.875 154.656C134.961 155.703 135.566 157.125 135.691 158.922L135.715 159.789C135.715 161.734 135.172 163.297 134.086 164.477C133 165.648 131.543 166.234 129.715 166.234C127.887 166.234 126.426 165.648 125.332 164.477C124.246 163.305 123.703 161.711 123.703 159.695V159.543ZM127.09 159.789C127.09 160.992 127.316 161.914 127.77 162.555C128.223 163.188 128.871 163.504 129.715 163.504C130.535 163.504 131.176 163.191 131.637 162.566C132.098 161.934 132.328 160.926 132.328 159.543C132.328 158.363 132.098 157.449 131.637 156.801C131.176 156.152 130.527 155.828 129.691 155.828C128.863 155.828 128.223 156.152 127.77 156.801C127.316 157.441 127.09 158.438 127.09 159.789ZM137.309 159.566C137.309 157.621 137.77 156.055 138.691 154.867C139.621 153.68 140.871 153.086 142.441 153.086C143.832 153.086 144.914 153.562 145.688 154.516L145.828 153.32H148.898V165.578C148.898 166.688 148.645 167.652 148.137 168.473C147.637 169.293 146.93 169.918 146.016 170.348C145.102 170.777 144.031 170.992 142.805 170.992C141.875 170.992 140.969 170.805 140.086 170.43C139.203 170.062 138.535 169.586 138.082 169L139.582 166.938C140.426 167.883 141.449 168.355 142.652 168.355C143.551 168.355 144.25 168.113 144.75 167.629C145.25 167.152 145.5 166.473 145.5 165.59V164.91C144.719 165.793 143.691 166.234 142.418 166.234C140.895 166.234 139.66 165.641 138.715 164.453C137.777 163.258 137.309 161.676 137.309 159.707V159.566ZM140.695 159.812C140.695 160.961 140.926 161.863 141.387 162.52C141.848 163.168 142.48 163.492 143.285 163.492C144.316 163.492 145.055 163.105 145.5 162.332V157C145.047 156.227 144.316 155.84 143.309 155.84C142.496 155.84 141.855 156.172 141.387 156.836C140.926 157.5 140.695 158.492 140.695 159.812ZM155.086 166H151.688V148H155.086V166ZM163.723 166.234C161.863 166.234 160.348 165.664 159.176 164.523C158.012 163.383 157.43 161.863 157.43 159.965V159.637C157.43 158.363 157.676 157.227 158.168 156.227C158.66 155.219 159.355 154.445 160.254 153.906C161.16 153.359 162.191 153.086 163.348 153.086C165.082 153.086 166.445 153.633 167.438 154.727C168.438 155.82 168.938 157.371 168.938 159.379V160.762H160.863C160.973 161.59 161.301 162.254 161.848 162.754C162.402 163.254 163.102 163.504 163.945 163.504C165.25 163.504 166.27 163.031 167.004 162.086L168.668 163.949C168.16 164.668 167.473 165.23 166.605 165.637C165.738 166.035 164.777 166.234 163.723 166.234ZM163.336 155.828C162.664 155.828 162.117 156.055 161.695 156.508C161.281 156.961 161.016 157.609 160.898 158.453H165.609V158.184C165.594 157.434 165.391 156.855 165 156.449C164.609 156.035 164.055 155.828 163.336 155.828ZM185.918 161.523C185.918 160.859 185.684 160.352 185.215 160C184.746 159.641 183.902 159.266 182.684 158.875C181.465 158.477 180.5 158.086 179.789 157.703C177.852 156.656 176.883 155.246 176.883 153.473C176.883 152.551 177.141 151.73 177.656 151.012C178.18 150.285 178.926 149.719 179.895 149.312C180.871 148.906 181.965 148.703 183.176 148.703C184.395 148.703 185.48 148.926 186.434 149.371C187.387 149.809 188.125 150.43 188.648 151.234C189.18 152.039 189.445 152.953 189.445 153.977H185.93C185.93 153.195 185.684 152.59 185.191 152.16C184.699 151.723 184.008 151.504 183.117 151.504C182.258 151.504 181.59 151.688 181.113 152.055C180.637 152.414 180.398 152.891 180.398 153.484C180.398 154.039 180.676 154.504 181.23 154.879C181.793 155.254 182.617 155.605 183.703 155.934C185.703 156.535 187.16 157.281 188.074 158.172C188.988 159.062 189.445 160.172 189.445 161.5C189.445 162.977 188.887 164.137 187.77 164.98C186.652 165.816 185.148 166.234 183.258 166.234C181.945 166.234 180.75 165.996 179.672 165.52C178.594 165.035 177.77 164.375 177.199 163.539C176.637 162.703 176.355 161.734 176.355 160.633H179.883C179.883 162.516 181.008 163.457 183.258 163.457C184.094 163.457 184.746 163.289 185.215 162.953C185.684 162.609 185.918 162.133 185.918 161.523ZM196.887 163.504C197.512 163.504 198.02 163.332 198.41 162.988C198.801 162.645 199.004 162.188 199.02 161.617H202.195C202.188 162.477 201.953 163.266 201.492 163.984C201.031 164.695 200.398 165.25 199.594 165.648C198.797 166.039 197.914 166.234 196.945 166.234C195.133 166.234 193.703 165.66 192.656 164.512C191.609 163.355 191.086 161.762 191.086 159.73V159.508C191.086 157.555 191.605 155.996 192.645 154.832C193.684 153.668 195.109 153.086 196.922 153.086C198.508 153.086 199.777 153.539 200.73 154.445C201.691 155.344 202.18 156.543 202.195 158.043H199.02C199.004 157.387 198.801 156.855 198.41 156.449C198.02 156.035 197.504 155.828 196.863 155.828C196.074 155.828 195.477 156.117 195.07 156.695C194.672 157.266 194.473 158.195 194.473 159.484V159.836C194.473 161.141 194.672 162.078 195.07 162.648C195.469 163.219 196.074 163.504 196.887 163.504ZM211.254 156.496C210.793 156.434 210.387 156.402 210.035 156.402C208.754 156.402 207.914 156.836 207.516 157.703V166H204.129V153.32H207.328L207.422 154.832C208.102 153.668 209.043 153.086 210.246 153.086C210.621 153.086 210.973 153.137 211.301 153.238L211.254 156.496ZM216.469 166H213.07V153.32H216.469V166ZM212.871 150.039C212.871 149.531 213.039 149.113 213.375 148.785C213.719 148.457 214.184 148.293 214.77 148.293C215.348 148.293 215.809 148.457 216.152 148.785C216.496 149.113 216.668 149.531 216.668 150.039C216.668 150.555 216.492 150.977 216.141 151.305C215.797 151.633 215.34 151.797 214.77 151.797C214.199 151.797 213.738 151.633 213.387 151.305C213.043 150.977 212.871 150.555 212.871 150.039ZM230.684 159.777C230.684 161.73 230.238 163.297 229.348 164.477C228.465 165.648 227.27 166.234 225.762 166.234C224.48 166.234 223.445 165.789 222.656 164.898V170.875H219.27V153.32H222.41L222.527 154.562C223.348 153.578 224.418 153.086 225.738 153.086C227.301 153.086 228.516 153.664 229.383 154.82C230.25 155.977 230.684 157.57 230.684 159.602V159.777ZM227.297 159.531C227.297 158.352 227.086 157.441 226.664 156.801C226.25 156.16 225.645 155.84 224.848 155.84C223.785 155.84 223.055 156.246 222.656 157.059V162.25C223.07 163.086 223.809 163.504 224.871 163.504C226.488 163.504 227.297 162.18 227.297 159.531ZM236.848 150.203V153.32H239.016V155.805H236.848V162.133C236.848 162.602 236.938 162.938 237.117 163.141C237.297 163.344 237.641 163.445 238.148 163.445C238.523 163.445 238.855 163.418 239.145 163.363V165.93C238.48 166.133 237.797 166.234 237.094 166.234C234.719 166.234 233.508 165.035 233.461 162.637V155.805H231.609V153.32H233.461V150.203H236.848ZM247.77 162.496C247.77 162.082 247.562 161.758 247.148 161.523C246.742 161.281 246.086 161.066 245.18 160.879C242.164 160.246 240.656 158.965 240.656 157.035C240.656 155.91 241.121 154.973 242.051 154.223C242.988 153.465 244.211 153.086 245.719 153.086C247.328 153.086 248.613 153.465 249.574 154.223C250.543 154.98 251.027 155.965 251.027 157.176H247.641C247.641 156.691 247.484 156.293 247.172 155.98C246.859 155.66 246.371 155.5 245.707 155.5C245.137 155.5 244.695 155.629 244.383 155.887C244.07 156.145 243.914 156.473 243.914 156.871C243.914 157.246 244.09 157.551 244.441 157.785C244.801 158.012 245.402 158.211 246.246 158.383C247.09 158.547 247.801 158.734 248.379 158.945C250.168 159.602 251.062 160.738 251.062 162.355C251.062 163.512 250.566 164.449 249.574 165.168C248.582 165.879 247.301 166.234 245.73 166.234C244.668 166.234 243.723 166.047 242.895 165.672C242.074 165.289 241.43 164.77 240.961 164.113C240.492 163.449 240.258 162.734 240.258 161.969H243.469C243.5 162.57 243.723 163.031 244.137 163.352C244.551 163.672 245.105 163.832 245.801 163.832C246.449 163.832 246.938 163.711 247.266 163.469C247.602 163.219 247.77 162.895 247.77 162.496Z" fill="#A9A9A9"/>
</svg>
