<svg width="345" height="204" viewBox="0 0 345 204" fill="none" xmlns="http://www.w3.org/2000/svg">
<rect width="345" height="204" fill="#1D1D1D"/>
<path d="M134.72 67.32C134.704 67.848 134.656 68.72 134.576 69.936C135.088 69.968 135.504 69.984 135.824 69.984C136.88 69.968 137.68 69.68 138.224 69.12C138.384 68.928 138.472 68.784 138.488 68.688C138.52 68.576 138.488 68.424 138.392 68.232C138.104 67.688 137.416 67.376 136.328 67.296C135.864 67.248 135.328 67.256 134.72 67.32ZM132.968 82.08C131.864 82.08 131.024 82.064 130.448 82.032C130.24 82.016 130.064 81.928 129.92 81.768C129.792 81.624 129.736 81.448 129.752 81.24V81.168C129.704 81.056 129.68 80.928 129.68 80.784L129.704 80.52C129.64 80.392 129.608 80.264 129.608 80.136C129.624 78.776 129.632 77.944 129.632 77.64C129.632 77.336 129.608 76.504 129.56 75.144C129.512 73.784 129.488 72.952 129.488 72.648C129.472 72.104 129.48 70.72 129.512 68.496C129.544 66.752 129.512 65.408 129.416 64.464C129.4 64.304 129.44 64.152 129.536 64.008C129.52 63.976 129.512 63.952 129.512 63.936C129.496 63.728 129.552 63.544 129.68 63.384C129.824 63.224 129.992 63.136 130.184 63.12C131.784 62.992 133.464 63 135.224 63.144C137.512 63.352 139.16 63.784 140.168 64.44C141.064 65.032 141.728 65.72 142.16 66.504C142.592 67.272 142.744 68.072 142.616 68.904C142.504 69.704 142.144 70.432 141.536 71.088C140.928 71.744 140.144 72.272 139.184 72.672C138.96 72.768 138.72 72.848 138.464 72.912C138.528 73.136 138.696 73.664 138.968 74.496L139.544 76.248C139.656 76.584 139.824 77.072 140.048 77.712C140.288 78.336 140.52 78.896 140.744 79.392C140.968 79.872 141.208 80.344 141.464 80.808C141.544 80.936 141.576 81.072 141.56 81.216C141.576 81.248 141.584 81.28 141.584 81.312C141.6 81.52 141.544 81.704 141.416 81.864C141.288 82.024 141.128 82.12 140.936 82.152C139.768 82.28 138.928 82.392 138.416 82.488C138.224 82.52 138.04 82.472 137.864 82.344C137.704 82.232 137.6 82.072 137.552 81.864V81.768C137.52 81.736 137.496 81.688 137.48 81.624C136.76 79.992 135.64 77.28 134.12 73.488C134.12 73.456 134.112 73.424 134.096 73.392H133.472C133.44 74.288 133.448 75.472 133.496 76.944C133.576 79.392 133.616 80.736 133.616 80.976C133.68 81.088 133.712 81.208 133.712 81.336C133.712 81.544 133.64 81.72 133.496 81.864C133.352 82.008 133.176 82.08 132.968 82.08ZM151.312 69.264C153.104 69.472 154.512 70.16 155.536 71.328C156.848 72.768 157.248 74.616 156.736 76.872C156.336 78.616 155.456 79.904 154.096 80.736C152.928 81.44 151.24 81.632 149.032 81.312C148.312 81.2 147.664 80.984 147.088 80.664C146.528 80.328 146.08 79.928 145.744 79.464C145.408 79 145.136 78.488 144.928 77.928C144.72 77.352 144.608 76.768 144.592 76.176C144.592 75.584 144.64 74.992 144.736 74.4C144.88 73.664 145.128 72.968 145.48 72.312C145.832 71.64 146.272 71.048 146.8 70.536C147.328 70.024 147.968 69.648 148.72 69.408C149.488 69.152 150.296 69.088 151.144 69.216C151.208 69.232 151.264 69.248 151.312 69.264ZM152.296 73.752C151.48 73.592 150.96 73.536 150.736 73.584C150.24 73.696 149.832 73.944 149.512 74.328C149.208 74.696 149.032 75.12 148.984 75.6C148.968 75.792 148.984 75.984 149.032 76.176C149.112 76.48 149.24 76.752 149.416 76.992C149.688 77.28 150.048 77.48 150.496 77.592C151.312 77.8 151.944 77.768 152.392 77.496C152.856 77.224 153.144 76.824 153.256 76.296C153.32 75.976 153.312 75.64 153.232 75.288C153.136 74.984 153.024 74.704 152.896 74.448C152.736 74.192 152.536 73.96 152.296 73.752ZM167.553 70.68C167.457 71.224 167.401 71.512 167.385 71.544C167.369 71.624 167.329 71.728 167.265 71.856L167.049 72.384C167.001 72.464 166.953 72.536 166.905 72.6C166.889 72.728 166.849 72.848 166.785 72.96C166.673 73.12 166.513 73.224 166.305 73.272C166.113 73.32 165.929 73.288 165.753 73.176C165.081 72.76 164.249 72.72 163.257 73.056C162.761 73.232 162.353 73.456 162.033 73.728C161.729 74 161.521 74.288 161.409 74.592C161.313 74.88 161.273 75.176 161.289 75.48C161.305 75.768 161.377 76.056 161.505 76.344C161.809 76.936 162.249 77.328 162.825 77.52C163.417 77.696 164.081 77.568 164.817 77.136C165.121 76.944 165.673 76.464 166.473 75.696C166.617 75.552 166.785 75.48 166.977 75.48C167.185 75.48 167.361 75.56 167.505 75.72C167.521 75.72 167.537 75.728 167.553 75.744C167.665 75.776 167.761 75.84 167.841 75.936L168.201 76.32C168.297 76.432 168.369 76.52 168.417 76.584C168.465 76.632 168.593 76.84 168.801 77.208C168.961 77.32 169.057 77.472 169.089 77.664C169.137 77.856 169.105 78.04 168.993 78.216C168.193 79.448 167.305 80.28 166.329 80.712C164.985 81.32 163.473 81.4 161.793 80.952C159.665 80.392 158.313 79.248 157.737 77.52C157.225 76.016 157.385 74.44 158.217 72.792C158.729 71.784 159.425 70.944 160.305 70.272C161.185 69.584 162.201 69.152 163.353 68.976C164.521 68.784 165.729 69.048 166.977 69.768C167.009 69.784 167.041 69.808 167.073 69.84C167.249 69.904 167.385 70.016 167.481 70.176C167.577 70.32 167.601 70.488 167.553 70.68ZM180.629 79.68C179.749 79.232 178.509 78.504 176.909 77.496L174.245 75.816C174.245 77.48 174.269 79.096 174.317 80.664C174.317 80.872 174.245 81.056 174.101 81.216C174.053 81.376 173.957 81.504 173.813 81.6C173.685 81.712 173.533 81.768 173.357 81.768C172.829 81.752 172.301 81.744 171.773 81.744C171.453 81.744 171.229 81.592 171.101 81.288C170.941 81.144 170.861 80.968 170.861 80.76C170.861 79.672 170.837 78.04 170.789 75.864C170.757 73.688 170.741 72.056 170.741 70.968C170.741 70.488 170.749 69.808 170.765 68.928C170.781 68.048 170.797 67.48 170.813 67.224C170.829 65.752 170.789 64.536 170.693 63.576C170.693 63.48 170.701 63.384 170.717 63.288C170.669 63.192 170.653 63.08 170.669 62.952C170.685 62.744 170.773 62.576 170.933 62.448C171.093 62.32 171.277 62.264 171.485 62.28C171.965 62.328 172.645 62.352 173.525 62.352C173.653 62.288 173.789 62.256 173.933 62.256C174.125 62.272 174.293 62.36 174.437 62.52C174.581 62.664 174.645 62.84 174.629 63.048C174.485 65.56 174.389 67.872 174.341 69.984L178.829 65.496C178.957 65.368 179.109 65.296 179.285 65.28C179.477 65.2 179.661 65.192 179.837 65.256C180.029 65.304 180.173 65.416 180.269 65.592C180.349 65.72 180.525 66.04 180.797 66.552L181.421 67.704C181.453 67.8 181.477 67.896 181.493 67.992C181.573 68.168 181.581 68.352 181.517 68.544C181.469 68.72 181.357 68.856 181.181 68.952C179.805 69.704 178.069 70.968 175.973 72.744C176.421 73.032 177.149 73.48 178.157 74.088L180.821 75.672L182.957 77.064C183.085 77.144 183.173 77.256 183.221 77.4C183.253 77.416 183.285 77.448 183.317 77.496C183.429 77.656 183.461 77.84 183.413 78.048C183.381 78.24 183.277 78.4 183.101 78.528C182.669 78.816 182.221 79.144 181.757 79.512C181.629 79.624 181.469 79.68 181.277 79.68C181.069 79.776 180.853 79.776 180.629 79.68ZM134.432 95.344C134.384 96.272 134.352 97.128 134.336 97.912C134.976 97.96 135.472 97.984 135.824 97.984C136.832 97.968 137.592 97.712 138.104 97.216C138.168 97.056 138.192 96.904 138.176 96.76C138.16 96.44 137.992 96.056 137.672 95.608C137.32 95.448 136.872 95.344 136.328 95.296C135.784 95.248 135.152 95.264 134.432 95.344ZM132.968 110.08C131.864 110.08 131.024 110.064 130.448 110.032C130.24 110.016 130.064 109.928 129.92 109.768C129.792 109.624 129.736 109.448 129.752 109.24V109.168C129.704 109.056 129.68 108.928 129.68 108.784C129.712 108.256 129.736 107.688 129.752 107.08C129.752 106.984 129.776 106.888 129.824 106.792C129.824 106.52 129.776 104.464 129.68 100.624C129.664 100.016 129.672 98.632 129.704 96.472C129.736 94.76 129.704 93.44 129.608 92.512C129.48 92.384 129.408 92.232 129.392 92.056C129.376 91.848 129.432 91.664 129.56 91.504C129.704 91.344 129.872 91.256 130.064 91.24C131.664 91.112 133.344 91.12 135.104 91.264C137.392 91.472 139.04 91.904 140.048 92.56C140.944 93.152 141.608 93.84 142.04 94.624C142.472 95.392 142.624 96.192 142.496 97.024C142.384 97.824 142.024 98.552 141.416 99.208C140.808 99.864 140.024 100.392 139.064 100.792C137.864 101.272 136 101.512 133.472 101.512C133.44 102.376 133.448 103.52 133.496 104.944C133.576 107.312 133.616 108.656 133.616 108.976C133.68 109.088 133.712 109.208 133.712 109.336C133.712 109.544 133.64 109.72 133.496 109.864C133.352 110.008 133.176 110.08 132.968 110.08ZM150.355 102.472C150.387 102.168 150.403 101.88 150.403 101.608C150.419 100.648 150.235 100.032 149.851 99.76C149.371 99.392 148.483 99.448 147.187 99.928C146.867 100.04 146.595 99.976 146.371 99.736C146.099 99.656 145.923 99.48 145.843 99.208L145.459 97.6C145.411 97.392 145.443 97.208 145.555 97.048C145.667 96.872 145.819 96.76 146.011 96.712C146.139 96.68 146.267 96.68 146.395 96.712C146.427 96.712 146.547 96.696 146.755 96.664C146.963 96.616 147.099 96.592 147.163 96.592C147.243 96.576 147.379 96.552 147.571 96.52C147.779 96.488 147.931 96.472 148.027 96.472C148.139 96.456 148.283 96.44 148.459 96.424C148.651 96.408 148.811 96.408 148.939 96.424C149.067 96.424 149.211 96.432 149.371 96.448C149.531 96.464 149.683 96.488 149.827 96.52C151.971 96.984 153.067 98.84 153.115 102.088C153.115 103.016 153.035 104.216 152.875 105.688C152.699 107.368 152.603 108.288 152.587 108.448C152.587 108.624 152.531 108.776 152.419 108.904C152.307 109.032 152.171 109.112 152.011 109.144C151.867 109.256 151.707 109.304 151.531 109.288C150.939 109.256 150.347 109.232 149.755 109.216C149.547 109.216 149.371 109.144 149.227 109C149.099 108.84 149.035 108.656 149.035 108.448V108.352V108.28C148.299 108.408 147.595 108.464 146.923 108.448C145.003 108.368 143.675 107.728 142.939 106.528C142.763 106.208 142.667 105.84 142.651 105.424C142.635 104.992 142.691 104.64 142.819 104.368C143.411 102.8 144.699 101.984 146.683 101.92C147.739 101.872 148.963 102.056 150.355 102.472ZM149.875 104.824C149.763 104.808 149.395 104.712 148.771 104.536C148.307 104.408 147.939 104.32 147.667 104.272C147.379 104.208 147.123 104.168 146.899 104.152C146.467 104.28 146.163 104.448 145.987 104.656C145.827 104.864 145.747 105.064 145.747 105.256C145.763 105.56 145.955 105.832 146.323 106.072C146.387 106.072 146.451 106.08 146.515 106.096C147.603 106.176 148.651 106.072 149.659 105.784C149.755 105.432 149.835 105.112 149.899 104.824H149.875ZM162.173 102.52C162.413 102.2 162.557 101.896 162.605 101.608C162.653 101.272 162.589 100.896 162.413 100.48C162.285 100.368 162.133 100.288 161.957 100.24C161.253 100.048 160.397 100.352 159.389 101.152C159.373 101.536 159.365 101.976 159.365 102.472C160.437 102.712 161.373 102.728 162.173 102.52ZM156.893 114.352C156.381 114.32 155.845 114.304 155.285 114.304C155.077 114.304 154.901 114.232 154.757 114.088C154.613 113.944 154.541 113.768 154.541 113.56C154.541 113.464 154.557 113.376 154.589 113.296C154.541 113.184 154.517 113.064 154.517 112.936C154.533 112.216 154.565 110.976 154.613 109.216L154.757 105.16C154.789 104.2 154.813 103 154.829 101.56C154.861 100.12 154.877 98.8 154.877 97.6C154.877 97.536 154.885 97.472 154.901 97.408C154.869 97.328 154.853 97.24 154.853 97.144C154.853 96.936 154.925 96.76 155.069 96.616C155.213 96.472 155.389 96.4 155.597 96.4H157.277C157.581 96.4 157.797 96.536 157.925 96.808C158.085 96.952 158.165 97.136 158.165 97.36L158.141 97.864C158.365 97.672 158.613 97.488 158.885 97.312C159.397 96.976 160.061 96.784 160.877 96.736C162.669 96.64 164.013 97.248 164.909 98.56C165.661 99.68 165.909 101 165.653 102.52C165.381 104.056 164.701 105.184 163.613 105.904C162.349 106.768 160.893 106.76 159.245 105.88C158.461 105.464 158.013 105.216 157.901 105.136L157.853 105.088L157.829 105.352C157.781 106.136 157.765 107.456 157.781 109.312C157.797 111.088 157.765 112.456 157.685 113.416V113.464V113.656C157.669 113.864 157.581 114.032 157.421 114.16C157.277 114.304 157.101 114.368 156.893 114.352ZM173.366 106.792C174.374 106.696 175.214 106.104 175.886 105.016C175.982 104.84 176.126 104.728 176.318 104.68C176.526 104.632 176.718 104.656 176.894 104.752C177.022 104.768 177.142 104.816 177.254 104.896C177.35 104.976 177.446 105.056 177.542 105.136C177.638 105.2 177.694 105.24 177.71 105.256C177.726 105.272 177.758 105.304 177.806 105.352C177.87 105.384 177.91 105.408 177.926 105.424C177.942 105.424 177.998 105.448 178.094 105.496L178.43 105.688C178.606 105.8 178.718 105.96 178.766 106.168C178.814 106.36 178.79 106.544 178.694 106.72C178.662 106.816 178.614 106.904 178.55 106.984C177.878 107.8 177.454 108.288 177.278 108.448C176.174 109.392 174.726 109.792 172.934 109.648C170.726 109.472 169.126 108.72 168.134 107.392C167.078 105.968 166.91 104.184 167.63 102.04C168.062 100.792 168.798 99.816 169.838 99.112C170.878 98.392 172.014 98.008 173.246 97.96C174.51 97.912 175.662 98.232 176.702 98.92C177.758 99.608 178.494 100.616 178.91 101.944C178.958 102.12 178.942 102.296 178.862 102.472C178.782 102.648 178.654 102.768 178.478 102.832C178.414 102.896 178.35 102.944 178.286 102.976C176.238 103.792 174.182 104.408 172.118 104.824C172.102 104.84 172.086 104.848 172.07 104.848L170.414 105.52L170.606 105.712C170.926 106.032 171.286 106.288 171.686 106.48C172.23 106.64 172.79 106.744 173.366 106.792ZM170.75 102.256C170.734 102.56 170.75 102.864 170.798 103.168C171.422 102.928 172.822 102.472 174.998 101.8C174.79 101.448 174.63 101.216 174.518 101.104C174.358 100.96 174.118 100.832 173.798 100.72C172.598 100.8 171.582 101.312 170.75 102.256ZM187.881 100.72C187.033 100.24 186.273 100.28 185.601 100.84C184.993 101.352 184.473 102.192 184.041 103.36V105.976V108.592C184.089 108.672 184.113 108.76 184.113 108.856C184.129 109.064 184.065 109.24 183.921 109.384C183.793 109.544 183.625 109.632 183.417 109.648C182.905 109.68 182.129 109.696 181.089 109.696C180.881 109.696 180.705 109.624 180.561 109.48C180.417 109.336 180.345 109.16 180.345 108.952C180.345 108.776 180.401 108.616 180.513 108.472C180.513 108.008 180.521 106.912 180.537 105.184C180.569 103.44 180.569 102.024 180.537 100.936C180.521 99.832 180.457 98.752 180.345 97.696V97.552C180.329 97.392 180.361 97.24 180.441 97.096C180.537 96.936 180.673 96.832 180.849 96.784C181.505 96.544 182.385 96.424 183.489 96.424C183.697 96.424 183.873 96.496 184.017 96.64C184.161 96.784 184.233 96.96 184.233 97.168C184.233 97.264 184.217 97.36 184.185 97.456L184.161 97.72C184.833 97.128 185.505 96.72 186.177 96.496C186.657 96.352 187.129 96.288 187.593 96.304C188.057 96.32 188.513 96.488 188.961 96.808C189.409 97.112 189.801 97.544 190.137 98.104C190.153 98.152 190.169 98.192 190.185 98.224C190.281 98.384 190.313 98.56 190.281 98.752C190.265 98.944 190.185 99.096 190.041 99.208L189.585 99.568C189.505 99.632 189.457 99.672 189.441 99.688C189.425 99.688 189.409 99.704 189.393 99.736C189.377 99.752 189.337 99.808 189.273 99.904C189.209 99.984 189.121 100.088 189.009 100.216C188.993 100.248 188.977 100.272 188.961 100.288C188.945 100.336 188.921 100.384 188.889 100.432C188.793 100.624 188.641 100.744 188.433 100.792C188.241 100.84 188.057 100.816 187.881 100.72ZM140.912 120.8L140.96 122.816C140.96 123.024 140.888 123.208 140.744 123.368C140.616 123.512 140.448 123.584 140.24 123.584H140.144H139.976C138.12 123.36 137.064 123.24 136.808 123.224C135.72 123.176 134.752 123.32 133.904 123.656C133.488 123.816 133.232 123.984 133.136 124.16C133.072 124.32 133.16 124.568 133.4 124.904C133.784 125.432 134.44 125.84 135.368 126.128C135.704 126.24 136.184 126.368 136.808 126.512C137.608 126.688 138.136 126.808 138.392 126.872C139.736 127.224 140.792 127.728 141.56 128.384C142.584 129.264 143.264 130.512 143.6 132.128C143.76 132.896 143.68 133.688 143.36 134.504C143.04 135.304 142.616 136 142.088 136.592C140.312 138.544 137.952 139.144 135.008 138.392C132.88 137.848 130.736 136.712 128.576 134.984C128.384 134.84 128.288 134.648 128.288 134.408C128.24 134.232 128.256 134.064 128.336 133.904L129.128 132.224C129.208 132.032 129.344 131.904 129.536 131.84C129.744 131.76 129.936 131.768 130.112 131.864C130.224 131.912 130.32 131.992 130.4 132.104C130.432 132.12 130.464 132.144 130.496 132.176C131.12 132.8 131.904 133.36 132.848 133.856C133.808 134.352 134.704 134.648 135.536 134.744C135.92 134.792 136.64 134.728 137.696 134.552C138.688 134.392 139.312 134.16 139.568 133.856C139.856 133.552 139.864 132.992 139.592 132.176C139.432 131.696 139.152 131.288 138.752 130.952L138.656 130.904L136.496 129.872L136.112 129.752L134.864 129.44C134.224 129.28 133.728 129.152 133.376 129.056C133.04 128.944 132.632 128.784 132.152 128.576C131.672 128.368 131.28 128.136 130.976 127.88C129.84 126.984 129.432 125.712 129.752 124.064C129.96 122.912 130.448 121.992 131.216 121.304C132 120.6 132.936 120.104 134.024 119.816C135.848 119.352 137.84 119.384 140 119.912C140.144 119.944 140.264 120.008 140.36 120.104C140.52 120.152 140.648 120.24 140.744 120.368C140.856 120.496 140.912 120.64 140.912 120.8ZM154.311 126.68C154.215 127.224 154.159 127.512 154.143 127.544C154.127 127.624 154.087 127.728 154.023 127.856L153.807 128.384C153.759 128.464 153.711 128.536 153.663 128.6C153.647 128.728 153.607 128.848 153.543 128.96C153.431 129.12 153.271 129.224 153.063 129.272C152.871 129.32 152.687 129.288 152.511 129.176C151.839 128.76 151.007 128.72 150.015 129.056C149.519 129.232 149.111 129.456 148.791 129.728C148.487 130 148.279 130.288 148.167 130.592C148.071 130.88 148.031 131.176 148.047 131.48C148.063 131.768 148.135 132.056 148.263 132.344C148.567 132.936 149.007 133.328 149.583 133.52C150.175 133.696 150.839 133.568 151.575 133.136C151.879 132.944 152.431 132.464 153.231 131.696C153.375 131.552 153.543 131.48 153.735 131.48C153.943 131.48 154.119 131.56 154.263 131.72C154.279 131.72 154.295 131.728 154.311 131.744C154.423 131.776 154.519 131.84 154.599 131.936L154.959 132.32C155.055 132.432 155.127 132.52 155.175 132.584C155.223 132.632 155.351 132.84 155.559 133.208C155.719 133.32 155.815 133.472 155.847 133.664C155.895 133.856 155.863 134.04 155.751 134.216C154.951 135.448 154.063 136.28 153.087 136.712C151.743 137.32 150.231 137.4 148.551 136.952C146.423 136.392 145.071 135.248 144.495 133.52C143.983 132.016 144.143 130.44 144.975 128.792C145.487 127.784 146.183 126.944 147.063 126.272C147.943 125.584 148.959 125.152 150.111 124.976C151.279 124.784 152.487 125.048 153.735 125.768C153.767 125.784 153.799 125.808 153.831 125.84C154.007 125.904 154.143 126.016 154.239 126.176C154.335 126.32 154.359 126.488 154.311 126.68ZM160.355 137.696C159.859 137.776 159.331 137.84 158.771 137.888C158.595 137.904 158.435 137.864 158.291 137.768C158.147 137.672 158.051 137.544 158.003 137.384C157.747 137.24 157.627 137.016 157.643 136.712C157.883 133 157.851 129.328 157.547 125.696C157.531 125.536 157.563 125.384 157.643 125.24C157.675 125.064 157.755 124.92 157.883 124.808C158.027 124.68 158.195 124.616 158.387 124.616H160.763C160.971 124.616 161.147 124.688 161.291 124.832C161.435 124.976 161.507 125.152 161.507 125.36C161.507 125.424 161.499 125.496 161.483 125.576C161.515 125.656 161.531 125.752 161.531 125.864C161.515 126.6 161.467 127.648 161.387 129.008C161.307 130.352 161.259 131.28 161.243 131.792C161.227 132.272 161.227 133.072 161.243 134.192C161.243 135.232 161.227 136.056 161.195 136.664C161.179 136.872 161.099 137.04 160.955 137.168C160.859 137.472 160.659 137.648 160.355 137.696ZM161.075 120.44C161.459 120.808 161.651 121.256 161.651 121.784C161.651 122.312 161.459 122.768 161.075 123.152C160.707 123.52 160.259 123.704 159.731 123.704C159.203 123.704 158.747 123.52 158.363 123.152C157.995 122.768 157.811 122.312 157.811 121.784C157.811 121.256 157.995 120.808 158.363 120.44C158.747 120.056 159.203 119.864 159.731 119.864C160.259 119.864 160.707 120.056 161.075 120.44ZM171.808 124.76L171.184 126.08C171.104 126.256 170.976 126.384 170.8 126.464C170.544 126.64 170.28 126.664 170.008 126.536C169 126.008 168.056 125.72 167.176 125.672C166.2 125.624 165.608 125.96 165.4 126.68C165.272 127.096 165.304 127.456 165.496 127.76C165.592 127.936 165.712 128.096 165.856 128.24C166.016 128.384 166.216 128.52 166.456 128.648C166.696 128.76 166.896 128.856 167.056 128.936C167.232 129 167.504 129.104 167.872 129.248C168.256 129.392 168.544 129.496 168.736 129.56C169.664 129.928 170.352 130.344 170.8 130.808C171.472 131.48 171.832 132.352 171.88 133.424C171.928 134.32 171.704 135.072 171.208 135.68C170.712 136.288 170.08 136.72 169.312 136.976C168.624 137.216 167.872 137.264 167.056 137.12C166.256 136.992 165.56 136.688 164.968 136.208C164.84 136.096 164.72 135.984 164.608 135.872C164.496 135.76 164.4 135.64 164.32 135.512L164.08 135.176C164.032 135.096 163.976 134.984 163.912 134.84L163.768 134.552C163.736 134.472 163.688 134.352 163.624 134.192C163.576 134.032 163.536 133.92 163.504 133.856C163.472 133.76 163.456 133.664 163.456 133.568C163.456 133.552 163.448 133.536 163.432 133.52C163.336 133.344 163.312 133.16 163.36 132.968C163.408 132.776 163.528 132.624 163.72 132.512L164.68 131.96C164.808 131.88 164.952 131.848 165.112 131.864C165.448 131.768 165.72 131.856 165.928 132.128C166.152 132.432 166.432 132.744 166.768 133.064C167.104 133.384 167.424 133.616 167.728 133.76C167.952 133.872 168.096 133.912 168.16 133.88C168.288 133.768 168.376 133.512 168.424 133.112C168.44 133.096 168.44 133.08 168.424 133.064C168.424 133.048 168.376 133 168.28 132.92C168.2 132.84 168.08 132.744 167.92 132.632C167.712 132.504 167.408 132.336 167.008 132.128L165.832 131.552C165.352 131.312 164.936 131.088 164.584 130.88C164.232 130.656 163.848 130.368 163.432 130.016C163.032 129.648 162.704 129.232 162.448 128.768C162.208 128.304 162.072 127.792 162.04 127.232C161.976 126.32 162.152 125.512 162.568 124.808C163 124.088 163.584 123.512 164.32 123.08C165.008 122.68 165.76 122.424 166.576 122.312C167.408 122.184 168.208 122.216 168.976 122.408C169.232 122.472 169.456 122.536 169.648 122.6C169.84 122.664 170.032 122.744 170.224 122.84L170.608 123.08C170.704 123.128 170.856 123.24 171.064 123.416C171.288 123.576 171.456 123.696 171.568 123.776C171.792 123.936 171.896 124.144 171.88 124.4C171.88 124.528 171.856 124.648 171.808 124.76ZM182.026 124.76L181.402 126.08C181.322 126.256 181.194 126.384 181.018 126.464C180.762 126.64 180.498 126.664 180.226 126.536C179.218 126.008 178.274 125.72 177.394 125.672C176.418 125.624 175.826 125.96 175.618 126.68C175.49 127.096 175.522 127.456 175.714 127.76C175.81 127.936 175.93 128.096 176.074 128.24C176.234 128.384 176.434 128.52 176.674 128.648C176.914 128.76 177.114 128.856 177.274 128.936C177.45 129 177.722 129.104 178.09 129.248C178.474 129.392 178.762 129.496 178.954 129.56C179.882 129.928 180.57 130.344 181.018 130.808C181.69 131.48 182.05 132.352 182.098 133.424C182.146 134.32 181.922 135.072 181.426 135.68C180.93 136.288 180.298 136.72 179.53 136.976C178.842 137.216 178.09 137.264 177.274 137.12C176.474 136.992 175.778 136.688 175.186 136.208C175.058 136.096 174.938 135.984 174.826 135.872C174.714 135.76 174.618 135.64 174.538 135.512L174.298 135.176C174.25 135.096 174.194 134.984 174.13 134.84L173.986 134.552C173.954 134.472 173.906 134.352 173.842 134.192C173.794 134.032 173.754 133.92 173.722 133.856C173.69 133.76 173.674 133.664 173.674 133.568C173.674 133.552 173.666 133.536 173.65 133.52C173.554 133.344 173.53 133.16 173.578 132.968C173.626 132.776 173.746 132.624 173.938 132.512L174.898 131.96C175.026 131.88 175.17 131.848 175.33 131.864C175.666 131.768 175.938 131.856 176.146 132.128C176.37 132.432 176.65 132.744 176.986 133.064C177.322 133.384 177.642 133.616 177.946 133.76C178.17 133.872 178.314 133.912 178.378 133.88C178.506 133.768 178.594 133.512 178.642 133.112C178.658 133.096 178.658 133.08 178.642 133.064C178.642 133.048 178.594 133 178.498 132.92C178.418 132.84 178.298 132.744 178.138 132.632C177.93 132.504 177.626 132.336 177.226 132.128L176.05 131.552C175.57 131.312 175.154 131.088 174.802 130.88C174.45 130.656 174.066 130.368 173.65 130.016C173.25 129.648 172.922 129.232 172.666 128.768C172.426 128.304 172.29 127.792 172.258 127.232C172.194 126.32 172.37 125.512 172.786 124.808C173.218 124.088 173.802 123.512 174.538 123.08C175.226 122.68 175.978 122.424 176.794 122.312C177.626 122.184 178.426 122.216 179.194 122.408C179.45 122.472 179.674 122.536 179.866 122.6C180.058 122.664 180.25 122.744 180.442 122.84L180.826 123.08C180.922 123.128 181.074 123.24 181.282 123.416C181.506 123.576 181.674 123.696 181.786 123.776C182.01 123.936 182.114 124.144 182.098 124.4C182.098 124.528 182.074 124.648 182.026 124.76ZM190.757 125.264C192.549 125.472 193.957 126.16 194.981 127.328C196.293 128.768 196.693 130.616 196.181 132.872C195.781 134.616 194.901 135.904 193.541 136.736C192.373 137.44 190.685 137.632 188.477 137.312C187.757 137.2 187.109 136.984 186.533 136.664C185.973 136.328 185.525 135.928 185.189 135.464C184.853 135 184.581 134.488 184.373 133.928C184.165 133.352 184.053 132.768 184.037 132.176C184.037 131.584 184.085 130.992 184.181 130.4C184.325 129.664 184.573 128.968 184.925 128.312C185.277 127.64 185.717 127.048 186.245 126.536C186.773 126.024 187.413 125.648 188.165 125.408C188.933 125.152 189.741 125.088 190.589 125.216C190.653 125.232 190.709 125.248 190.757 125.264ZM191.741 129.752C190.925 129.592 190.405 129.536 190.181 129.584C189.685 129.696 189.277 129.944 188.957 130.328C188.653 130.696 188.477 131.12 188.429 131.6C188.413 131.792 188.429 131.984 188.477 132.176C188.557 132.48 188.685 132.752 188.861 132.992C189.133 133.28 189.493 133.48 189.941 133.592C190.757 133.8 191.389 133.768 191.837 133.496C192.301 133.224 192.589 132.824 192.701 132.296C192.765 131.976 192.757 131.64 192.677 131.288C192.581 130.984 192.469 130.704 192.341 130.448C192.181 130.192 191.981 129.96 191.741 129.752ZM205.319 128.72C204.471 128.24 203.711 128.28 203.039 128.84C202.431 129.352 201.911 130.192 201.479 131.36V133.976V136.592C201.527 136.672 201.551 136.76 201.551 136.856C201.567 137.064 201.503 137.24 201.359 137.384C201.231 137.544 201.063 137.632 200.855 137.648C200.343 137.68 199.567 137.696 198.527 137.696C198.319 137.696 198.143 137.624 197.999 137.48C197.855 137.336 197.783 137.16 197.783 136.952C197.783 136.776 197.839 136.616 197.951 136.472C197.951 136.008 197.959 134.912 197.975 133.184C198.007 131.44 198.007 130.024 197.975 128.936C197.959 127.832 197.895 126.752 197.783 125.696V125.552C197.767 125.392 197.799 125.24 197.879 125.096C197.975 124.936 198.111 124.832 198.287 124.784C198.943 124.544 199.823 124.424 200.927 124.424C201.135 124.424 201.311 124.496 201.455 124.64C201.599 124.784 201.671 124.96 201.671 125.168C201.671 125.264 201.655 125.36 201.623 125.456L201.599 125.72C202.271 125.128 202.943 124.72 203.615 124.496C204.095 124.352 204.567 124.288 205.031 124.304C205.495 124.32 205.951 124.488 206.399 124.808C206.847 125.112 207.239 125.544 207.575 126.104C207.591 126.152 207.607 126.192 207.623 126.224C207.719 126.384 207.751 126.56 207.719 126.752C207.703 126.944 207.623 127.096 207.479 127.208L207.023 127.568C206.943 127.632 206.895 127.672 206.879 127.688C206.863 127.688 206.847 127.704 206.831 127.736C206.815 127.752 206.775 127.808 206.711 127.904C206.647 127.984 206.559 128.088 206.447 128.216C206.431 128.248 206.415 128.272 206.399 128.288C206.383 128.336 206.359 128.384 206.327 128.432C206.231 128.624 206.079 128.744 205.871 128.792C205.679 128.84 205.495 128.816 205.319 128.72ZM217.886 124.76L217.262 126.08C217.182 126.256 217.054 126.384 216.878 126.464C216.622 126.64 216.358 126.664 216.086 126.536C215.078 126.008 214.134 125.72 213.254 125.672C212.278 125.624 211.686 125.96 211.478 126.68C211.35 127.096 211.382 127.456 211.574 127.76C211.67 127.936 211.79 128.096 211.934 128.24C212.094 128.384 212.294 128.52 212.534 128.648C212.774 128.76 212.974 128.856 213.134 128.936C213.31 129 213.582 129.104 213.95 129.248C214.334 129.392 214.622 129.496 214.814 129.56C215.742 129.928 216.43 130.344 216.878 130.808C217.55 131.48 217.91 132.352 217.958 133.424C218.006 134.32 217.782 135.072 217.286 135.68C216.79 136.288 216.158 136.72 215.39 136.976C214.702 137.216 213.95 137.264 213.134 137.12C212.334 136.992 211.638 136.688 211.046 136.208C210.918 136.096 210.798 135.984 210.686 135.872C210.574 135.76 210.478 135.64 210.398 135.512L210.158 135.176C210.11 135.096 210.054 134.984 209.99 134.84L209.846 134.552C209.814 134.472 209.766 134.352 209.702 134.192C209.654 134.032 209.614 133.92 209.582 133.856C209.55 133.76 209.534 133.664 209.534 133.568C209.534 133.552 209.526 133.536 209.51 133.52C209.414 133.344 209.39 133.16 209.438 132.968C209.486 132.776 209.606 132.624 209.798 132.512L210.758 131.96C210.886 131.88 211.03 131.848 211.19 131.864C211.526 131.768 211.798 131.856 212.006 132.128C212.23 132.432 212.51 132.744 212.846 133.064C213.182 133.384 213.502 133.616 213.806 133.76C214.03 133.872 214.174 133.912 214.238 133.88C214.366 133.768 214.454 133.512 214.502 133.112C214.518 133.096 214.518 133.08 214.502 133.064C214.502 133.048 214.454 133 214.358 132.92C214.278 132.84 214.158 132.744 213.998 132.632C213.79 132.504 213.486 132.336 213.086 132.128L211.91 131.552C211.43 131.312 211.014 131.088 210.662 130.88C210.31 130.656 209.926 130.368 209.51 130.016C209.11 129.648 208.782 129.232 208.526 128.768C208.286 128.304 208.15 127.792 208.118 127.232C208.054 126.32 208.23 125.512 208.646 124.808C209.078 124.088 209.662 123.512 210.398 123.08C211.086 122.68 211.838 122.424 212.654 122.312C213.486 122.184 214.286 122.216 215.054 122.408C215.31 122.472 215.534 122.536 215.726 122.6C215.918 122.664 216.11 122.744 216.302 122.84L216.686 123.08C216.782 123.128 216.934 123.24 217.142 123.416C217.366 123.576 217.534 123.696 217.646 123.776C217.87 123.936 217.974 124.144 217.958 124.4C217.958 124.528 217.934 124.648 217.886 124.76Z" fill="#F5F4F0"/>
</svg>
